<?xml version="1.0" encoding="UTF-8"?><svg id="a" xmlns="http://www.w3.org/2000/svg" viewBox="0 0 306 306"><circle cx="153" cy="153" r="153" style="fill:#231f20;"/><g id="b"><path d="M153.48,267.24c-1.5,0-2.67-.69-3.6-1.24-.26-.15-.52-.31-.78-.44l-.13-.07c-37.58-20.94-61.85-46.21-76.38-79.51-12.87-29.01-17.75-62.8-14.5-100.42l.06-.66.38-.55c1.15-1.66,2.98-2.03,4.32-2.31.46-.09.93-.19,1.21-.31l.22-.09.23-.05c9.61-2.09,20.02-4.94,32.78-8.98,20.46-6.39,38.06-13.77,53.81-22.55l.1-.05c.68-.34,1.41-.51,2.16-.51,1.72,0,3.13.89,4.26,1.6.46.29.93.58,1.25.71l.15.06.14.08c9.08,4.92,19.37,9.54,29.73,13.35l.74.3c.63.25,1.27.51,1.92.85,1.2.66,1.81,1.89,1.54,3.08l-.15.7-.5.51c-2.12,2.17-8.77,8.17-11.57,10.25l-1.08.8-1.26-.46c-1.77-.64-3.58-1.25-5.42-1.87-4.17-1.41-8.48-2.86-12.65-4.78l-.11-.05c-2.44-1.26-5.34-2.58-7.3-3.46l-.12-.06c-.23,0-.94.39-1.41.64l-.23.12c-7.78,4.36-16.27,7.5-24.48,10.54-1.99.74-3.98,1.47-5.95,2.22-14.21,5.21-28.17,10.18-43.08,13.77l-.13.03-.14.02c-.93.12-1.18.33-1.18.33-.14.27-.07,1.41-.02,2.17.05.72.1,1.55.07,2.41-1.28,22.64,3.07,46.65,12.9,71.42.65,1.68,1.72,3.7,2.76,5.65.3.56.59,1.11.87,1.65,23.82-30.66,52.25-58.37,79.76-85.18,7.33-7.14,14.91-14.53,22.27-21.85,2.65-2.51,5.26-5.15,7.78-7.7,3.14-3.18,6.38-6.45,9.71-9.5-.13-.04-.25-.08-.35-.12-.73-.25-1.42-.48-2.02-.8-1.11-.33-2.71-.92-3.19-2.6-.34-1.18.02-2.37,1.08-3.56l.08-.09c1.62-1.65,3.34-3.12,5-4.54,1-.85,2.03-1.73,3.01-2.62l.08-.07c2.93-2.45,5.81-5.19,8.6-7.84,7.96-7.57,16.2-15.39,27.37-18.63l.38-.1c2.72-.67,5.81-1.44,8.78-1.64l.45-.02c.28-.01.56-.02.83-.02.86,0,2.12.1,3.16.97,1.85,1.42,1.56,3.8,1.41,5.09l-.04.34-.03.14c-3.61,15.16-13.45,26.51-22.96,37.49-3.59,4.15-7.31,8.44-10.62,12.86l-.12.14c-.84.96-1.79,1.44-2.84,1.44-2.33,0-3.27-2.17-3.9-3.6l-.06-.15c-.59-1.22-1-1.83-1.25-2.14-.15.15-.36.38-.63.74l-.19.26-.25.2c-1.51,1.23-3.26,2.68-4.88,4.28-12.91,13.48-26.63,26.82-39.9,39.73-26.76,26.03-54.44,52.95-77.3,82.78-.12.16-.25.33-.39.51-.35.45-.92,1.18-1.03,1.54.03.04.08.11.17.2l.17.17.14.21c12.98,19.49,32.4,37.17,51.97,47.31,2.95-.05,10.85-5.21,23.56-15.33.77-.61,1.4-1.11,1.84-1.46,1.06-.85,2.1-1.87,3.19-2.95,1.05-1.04,2.14-2.11,3.33-3.1l.1-.09.11-.07c2.23-1.47,4.15-3.7,6-5.85l.08-.09.09-.08c14.52-13.87,25.99-34.29,32.3-57.5l.27-1c.65-2.36,1.32-4.8,1.53-7.07.17-2.66,1.92-4.91,5.22-6.6l.15-.08.15-.06c.27-.11,1.24-.65,2.02-1.08,3.79-2.11,6.88-3.72,9.14-3.72,1.55,0,2.42.76,2.8,1.21.46.55.96,1.52.73,3.02-4.69,50.93-40.06,99.16-90.13,122.88-.65.34-1.41.52-2.19.52Z" style="fill:#fff;"/><path d="M262.54,17.71c.62,0,1.18.07,1.56.39l.06.05c.79.6.56,1.99.44,3.02-4.81,20.2-21.09,33.32-33.15,49.43-.36.42-.68.59-.95.59-.72,0-1.2-1.17-1.67-2.25-1-2.06-2.08-3.84-3.48-3.84-.79,0-1.68.57-2.7,1.97-1.72,1.4-3.43,2.84-5.05,4.44-39.1,40.82-83.09,77.98-117.43,122.77-1.24,1.65-3.07,3.49-1.03,5.53,12.83,19.26,32.57,37.63,52.99,48.19.29.16.66.24,1.08.24,5.82,0,23.07-14.34,26.92-17.32,2.31-1.85,4.29-4.19,6.58-6.1,2.48-1.64,4.52-3.99,6.52-6.31,16.35-15.62,27.16-37.22,32.99-58.65.75-2.76,1.63-5.67,1.88-8.51.14-2.24,2.01-3.65,3.87-4.61,1.38-.5,7.74-4.65,10.31-4.65.79,0,1.23.4,1.05,1.42-4.76,52.17-41.45,98.55-88.72,120.94-.39.2-.76.28-1.12.28-1.16,0-2.18-.89-3.29-1.43-32.99-18.39-59.49-42.07-75.31-78.32-13.82-31.14-17.23-65.29-14.3-99.21.9-1.29,3.01-1.13,4.46-1.75,11.03-2.4,22.1-5.59,33-9.04,18.73-5.85,37.13-13.19,54.28-22.75.35-.18.7-.25,1.05-.25,1.6,0,3.14,1.57,4.62,2.14,9.59,5.19,19.93,9.77,30.06,13.5.83.34,1.63.63,2.37,1.01.09.05.29.2.26.33-2.06,2.1-8.57,7.98-11.28,9.99-5.76-2.09-12.01-3.88-17.88-6.57-2.31-1.19-5.02-2.44-7.43-3.52-.38-.19-.75-.27-1.11-.27-.98,0-1.93.56-2.86,1.07-9.5,5.32-19.99,8.76-30.14,12.62-14.43,5.3-28.21,10.17-42.78,13.67-4.67.59-3.21,3.78-3.32,7.32-1.42,25.23,4.08,49.77,13.08,72.42,1.13,2.92,3.38,6.66,4.71,9.46.26.65.55.9.85.9.75,0,1.57-1.56,2.18-2.2,30.09-38.8,67.07-72.3,102.01-107.03,6.23-5.9,12.17-12.47,18.54-18.16,2.65-2.53-2.66-3.07-4.2-4.07-1.69-.49-2.38-.89-1.23-2.18,2.5-2.55,5.28-4.65,7.91-7.06,11.2-9.38,20.62-21.8,35.06-25.98,2.79-.69,5.78-1.45,8.63-1.64.37-.01.75-.03,1.11-.03M262.54,12.71c-.3,0-.62.01-.93.02h-.33s-.1.02-.1.02h-.1c-3.19.23-6.39,1.02-9.21,1.71l-.28.07-.1.02-.1.03c-11.76,3.41-20.21,11.44-28.4,19.21-2.89,2.74-5.61,5.33-8.48,7.74l-.08.07-.08.07c-.95.87-1.92,1.69-2.94,2.57-1.71,1.45-3.47,2.96-5.17,4.69l-.08.09-.08.09c-2.07,2.33-2.02,4.5-1.61,5.92.59,2.04,2.05,3.12,3.35,3.73-2.35,2.26-4.64,4.57-6.88,6.84-1.86,1.88-3.76,3.8-5.66,5.66l.27-1.23c.49-2.29-.61-4.61-2.76-5.78l-.03-.02-.03-.02c-.77-.4-1.51-.7-2.16-.96-.2-.08-.4-.16-.61-.24l-.09-.04-.09-.03c-10.26-3.78-20.43-8.35-29.41-13.21l-.28-.15-.3-.12c-.13-.06-.55-.32-.82-.49-1.25-.79-3.15-1.98-5.59-1.98-1.14,0-2.25.26-3.28.77l-.1.05-.1.06c-15.6,8.7-33.04,16.01-53.33,22.35-12.7,4.02-23.04,6.85-32.57,8.93l-.46.1-.44.19c-.09.03-.47.11-.73.16-1.55.32-4.15.86-5.87,3.33l-.76,1.09-.11,1.33c-3.29,38.05,1.66,72.25,14.71,101.67,14.75,33.8,39.36,59.44,77.44,80.66l.13.07.13.06c.14.07.38.21.6.34,1.07.63,2.69,1.59,4.87,1.59,1.15,0,2.26-.27,3.32-.79,50.81-24.09,86.69-73.06,91.48-124.81.36-2.5-.64-4.15-1.29-4.93-1.14-1.36-2.81-2.11-4.72-2.11-2.86,0-6.24,1.75-10.35,4.04-.61.34-1.44.8-1.74.94l-.22.08-.29.15c-5.09,2.62-6.39,6.13-6.57,8.65-.19,2.03-.83,4.34-1.44,6.57l-.28,1.02c-6.19,22.77-17.42,42.78-31.62,56.35l-.18.17-.16.19c-1.74,2.02-3.53,4.11-5.48,5.4l-.23.15-.21.17c-1.27,1.05-2.4,2.17-3.49,3.24-1.04,1.02-2.02,1.99-3,2.78-.45.35-1.07.85-1.83,1.45-14.24,11.34-19.58,14.14-21.57,14.69-18.72-9.89-37.25-26.75-49.84-45.37.13-.16.25-.33.38-.49,22.73-29.65,50.33-56.5,77.03-82.47,13.26-12.9,26.98-26.24,39.96-39.79,1.15-1.12,2.37-2.18,3.52-3.14.82,1.71,2.45,4.31,5.83,4.31,1.24,0,3.06-.4,4.72-2.3l.12-.14.11-.15c3.26-4.35,6.94-8.6,10.51-12.72,9.71-11.21,19.75-22.8,23.5-38.55l.07-.28.03-.29.02-.19c.19-1.51.62-5.02-2.31-7.33h-.02c-1.82-1.53-4.01-1.53-4.73-1.53h0ZM152.53,74.05l.2-.11c.06-.03.13-.07.19-.11,1.86.84,4.25,1.94,6.3,3l.1.05.11.05c4.29,1.97,8.66,3.45,12.9,4.88,1.87.63,3.63,1.23,5.37,1.85l2.53.92,2.16-1.6c1.69-1.25,4.62-3.78,7.23-6.14-6.21,6.14-12.52,12.29-18.66,18.27-26.66,25.98-54.19,52.81-77.61,82.39-.68-1.3-1.3-2.56-1.7-3.6-9.72-24.47-14-48.13-12.75-70.34v-.06s0-.06,0-.06c.03-.99-.02-1.87-.07-2.65,0-.02,0-.05,0-.07,14.88-3.61,28.79-8.56,42.9-13.74h.03s.03-.02.03-.02c1.97-.75,3.94-1.48,5.93-2.21,8.29-3.07,16.87-6.24,24.85-10.7h0Z" style="fill:#231f20;"/><path d="M212.11,157.77c-.92,0-2.14-.43-2.71-2.49-.55-2.04-.97-4.06-1.37-6.02-1.5-7.24-2.79-13.5-9.8-16.84-.45-.21-1.12-.33-1.84-.46-.54-.1-1.1-.2-1.69-.36-.71-.18-1.42-.38-2.14-.59-1.26-.35-2.44-.69-3.66-.95-.47-.1-.93-.2-1.39-.27l-.1-.02c-.22-.04-.44-.05-.65-.07-.82-.06-1.95-.15-2.99-.94l-.3-.23-.22-.31c-.58-.82-.69-1.84-.3-2.73.7-1.59,2.45-1.81,3.11-1.89h.1s.11-.02.11-.02c1.45-.06,2.95-.43,4.53-.83,1.1-.27,2.23-.56,3.42-.75,1.78-.38,3.8-.89,5.41-1.75,1.91-1.18,3.43-2.68,4.53-4.46.66-1.33,1.07-3.05,1.46-4.72.11-.46.21-.92.33-1.36.18-.74.38-1.51.58-2.27.7-2.63,1.35-5.12,1.23-7.54v-.22s.02-.22.02-.22c.35-2.72,2.37-2.86,2.77-2.86.74,0,1.44.31,1.97.86.88.92,1.41,2.84,1.48,3.89.45,3.38,1.32,6.6,2.2,9.57.56,1.88,1.23,3.87,2.28,5.58l.05.09c1.27,2.28,3.84,3.65,6.18,4.76,1.51.45,3.04.81,4.66,1.19,1.56.37,3.18.75,4.82,1.23l.14.05c.41.15,1.01.19,1.65.23.88.06,1.88.13,2.87.51l.34.13.43.33.17.16c.79.82,1.02,1.95.59,2.97-.74,1.76-2.96,2.02-4.22,2.02-.04,0-.08,0-.12,0-.56.03-1.19.2-1.9.4-.63.18-1.34.38-2.14.51-1.44.26-2.89.52-4.41.92-.59.19-1.21.35-1.83.51-1.52.4-2.96.78-3.88,1.54-3.08,2.91-4.74,5.67-4.8,7.98v.14s-.02.14-.02.14c-.24,1.69-.66,3.37-1.07,4.99-.48,1.9-.93,3.69-1.09,5.42,0,.11-.01.3-.02.52-.06,1.79-.16,4.5-2.76,4.51h0Z" style="fill:#fff;"/><path d="M210.54,99.12c.4,0,.99,1.98.96,2.5.46,3.47,1.34,6.8,2.29,10.03.64,2.13,1.37,4.27,2.54,6.17,1.62,2.91,4.57,4.52,7.47,5.88,3.17.97,6.4,1.52,9.66,2.48,1.45.52,3.19.23,4.48.73l.04.03c.51.53-1.2.75-1.84.75-.05,0-.08,0-.12,0-1.51.04-2.84.68-4.46.95-1.64.29-3.12.57-4.69.98-2.28.72-4.87,1.04-6.68,2.6-2.57,2.42-5.53,5.94-5.64,9.77-.49,3.46-1.86,7.03-2.17,10.54-.05.52-.04,2.75-.3,2.75-.08,0-.17-.19-.3-.65-2.59-9.6-2.31-19.59-12.51-24.45-1.2-.56-2.62-.62-3.96-.97-1.96-.51-3.9-1.13-5.91-1.56-.52-.11-1.03-.22-1.56-.3-.95-.18-1.92-.03-2.58-.54-.35-.5.74-.65,1.09-.69,2.82-.11,5.52-1.17,8.31-1.62,2.08-.45,4.31-1.02,6.19-2.04,2.27-1.39,4.12-3.18,5.46-5.41,1.03-2,1.48-4.5,2.02-6.69.83-3.46,2.07-6.97,1.88-10.54.06-.49.17-.68.29-.68M210.54,94.12h0c-2.29,0-4.8,1.56-5.25,5.04l-.06.44.02.45c.1,2.02-.51,4.33-1.15,6.77-.21.79-.41,1.57-.6,2.35-.1.41-.21.88-.32,1.35-.35,1.49-.71,3.02-1.21,4.08-.88,1.39-2.05,2.54-3.58,3.5-1.31.68-3.06,1.12-4.63,1.46-1.26.21-2.43.5-3.56.78-1.45.36-2.83.71-4.02.76h-.21s-.21.04-.21.04c-3.15.4-4.5,2.05-5.08,3.37-.75,1.7-.54,3.63.55,5.17l.44.62.6.46c1.63,1.25,3.38,1.38,4.32,1.45.13,0,.26.01.39.03l.1.02h.09c.39.07.83.16,1.2.25,1.17.25,2.32.58,3.54.92.73.21,1.46.41,2.2.6.66.18,1.3.29,1.86.39.44.08,1.05.19,1.24.27,5.58,2.66,6.77,7.23,8.4,15.07.41,1.99.84,4.06,1.41,6.15,1.11,4.04,4.21,4.35,5.13,4.35.48,0,4.7-.15,5.17-5.26.05-.56.07-1.17.09-1.65,0-.16,0-.31.02-.41.14-1.54.57-3.22,1.02-5.01.43-1.69.87-3.43,1.12-5.26l.04-.28v-.28c.05-1.57,1.49-3.81,3.96-6.16.52-.39,1.76-.72,2.87-1.01.6-.16,1.23-.32,1.87-.52,1.4-.36,2.77-.61,4.16-.86.92-.15,1.73-.38,2.37-.56.49-.14,1-.28,1.28-.31.02,0,.04,0,.07,0,1.88,0,5.22-.46,6.52-3.55.82-1.93.39-4.16-1.09-5.68l-.27-.28-.31-.23-.57-.43-.7-.28c-1.33-.51-2.58-.59-3.58-.67-.34-.02-.85-.06-1.02-.1l-.14-.05-.11-.03c-1.7-.5-3.35-.89-4.95-1.26-1.51-.35-2.94-.69-4.33-1.1-2.36-1.12-4.1-2.19-4.9-3.63l-.05-.09-.05-.09c-.89-1.46-1.5-3.27-2.02-5-.85-2.87-1.69-5.99-2.12-9.24-.16-1.49-.79-3.82-2.15-5.23-1.01-1.05-2.35-1.63-3.77-1.63h0Z" style="fill:#231f20;"/></g></svg>