<?xml version="1.0" encoding="UTF-8"?><svg id="a" xmlns="http://www.w3.org/2000/svg" xmlns:xlink="http://www.w3.org/1999/xlink" viewBox="0 0 306 306"><defs><linearGradient id="b" x1="153" y1="306" x2="153" y2="0" gradientUnits="userSpaceOnUse"><stop offset="0" stop-color="#fff"/><stop offset="1" stop-color="#000"/></linearGradient><linearGradient id="d" x1="162.17" y1="269.74" x2="162.17" y2="12.71" gradientUnits="userSpaceOnUse"><stop offset="0" stop-color="#fff"/><stop offset="1" stop-color="#000"/></linearGradient></defs><circle cx="153" cy="153" r="153" style="fill:url(#b);"/><g id="c"><path d="M264.16,18.15c.79.6.56,1.99.44,3.02-4.81,20.2-21.09,33.32-33.15,49.43-1.31,1.5-1.97-.18-2.63-1.66-1.56-3.23-3.34-5.75-6.18-1.87-1.72,1.4-3.43,2.84-5.05,4.44-39.1,40.82-83.09,77.98-117.43,122.77-1.24,1.65-3.07,3.49-1.03,5.53,12.83,19.26,32.57,37.63,52.99,48.19,4.31,2.4,23.88-13.88,28-17.08,2.31-1.85,4.29-4.19,6.58-6.1,2.48-1.64,4.52-3.99,6.52-6.31,16.35-15.62,27.16-37.22,32.99-58.65.75-2.76,1.63-5.67,1.88-8.51.14-2.24,2.01-3.65,3.87-4.61,1.81-.65,12.14-7.57,11.36-3.24-4.76,52.17-41.45,98.55-88.72,120.94-1.67.86-2.95-.44-4.41-1.14-32.99-18.39-59.49-42.07-75.31-78.32-13.82-31.14-17.23-65.29-14.3-99.21.9-1.29,3.01-1.13,4.46-1.75,11.03-2.4,22.1-5.59,33-9.04,18.73-5.85,37.13-13.19,54.28-22.75,1.97-.98,3.87,1.2,5.67,1.89,9.59,5.19,19.93,9.77,30.06,13.5.83.34,1.63.63,2.37,1.01.09.05.29.2.26.33-2.06,2.1-8.57,7.98-11.28,9.99-5.76-2.09-12.01-3.88-17.88-6.57-2.31-1.19-5.02-2.44-7.43-3.52-1.37-.71-2.69.1-3.97.79-9.5,5.32-19.99,8.76-30.14,12.62-14.43,5.3-28.21,10.17-42.78,13.67-4.67.59-3.21,3.78-3.32,7.32-1.42,25.23,4.08,49.77,13.08,72.42,1.13,2.92,3.38,6.66,4.71,9.46.92,2.29,2.17-.4,3.03-1.3,30.09-38.8,67.07-72.3,102.01-107.03,6.23-5.9,12.17-12.47,18.54-18.16,2.65-2.53-2.66-3.07-4.2-4.07-1.69-.49-2.38-.89-1.23-2.18,2.5-2.55,5.28-4.65,7.91-7.06,11.2-9.38,20.62-21.8,35.06-25.98,2.79-.69,5.78-1.45,8.63-1.64,1.02-.03,2.07-.15,2.67.36l.06.05Z" style="fill:#fff;"/><path d="M262.54,17.71c.62,0,1.18.07,1.56.39l.06.05c.79.6.56,1.99.44,3.02-4.81,20.2-21.09,33.32-33.15,49.43-.36.42-.68.59-.95.59-.72,0-1.2-1.17-1.67-2.25-1-2.06-2.08-3.84-3.48-3.84-.79,0-1.68.57-2.7,1.97-1.72,1.4-3.43,2.84-5.05,4.44-39.1,40.82-83.09,77.98-117.43,122.77-1.24,1.65-3.07,3.49-1.03,5.53,12.83,19.26,32.57,37.63,52.99,48.19.29.16.66.24,1.08.24,5.82,0,23.08-14.34,26.92-17.32,2.31-1.85,4.29-4.19,6.58-6.1,2.48-1.64,4.52-3.99,6.52-6.31,16.35-15.62,27.16-37.22,32.99-58.65.75-2.76,1.63-5.67,1.88-8.51.14-2.24,2.01-3.65,3.87-4.61,1.38-.5,7.74-4.65,10.31-4.65.79,0,1.23.4,1.05,1.42-4.76,52.17-41.45,98.55-88.72,120.94-.39.2-.76.28-1.12.28-1.16,0-2.18-.89-3.29-1.43-32.99-18.39-59.49-42.07-75.31-78.32-13.82-31.14-17.23-65.29-14.3-99.21.9-1.29,3.01-1.13,4.46-1.75,11.03-2.4,22.1-5.59,33-9.04,18.73-5.85,37.13-13.19,54.28-22.75.35-.18.7-.25,1.05-.25,1.6,0,3.14,1.57,4.62,2.14,9.59,5.19,19.93,9.77,30.06,13.5.83.34,1.63.63,2.37,1.01.09.05.29.2.26.33-2.06,2.1-8.57,7.98-11.28,9.99-5.76-2.09-12.01-3.88-17.88-6.57-2.31-1.19-5.02-2.44-7.43-3.52-.38-.19-.75-.27-1.11-.27-.98,0-1.93.56-2.86,1.07-9.5,5.32-19.99,8.76-30.14,12.62-14.43,5.3-28.21,10.17-42.78,13.67-4.67.59-3.21,3.78-3.32,7.32-1.42,25.23,4.08,49.77,13.08,72.42,1.13,2.92,3.38,6.66,4.71,9.46.26.65.55.9.85.9.75,0,1.57-1.56,2.18-2.2,30.09-38.8,67.07-72.3,102.01-107.03,6.23-5.9,12.17-12.47,18.54-18.16,2.65-2.53-2.66-3.07-4.2-4.07-1.69-.49-2.38-.89-1.23-2.18,2.5-2.55,5.28-4.65,7.91-7.06,11.2-9.38,20.62-21.8,35.06-25.98,2.79-.69,5.78-1.45,8.63-1.64.37-.01.75-.03,1.11-.03M262.54,12.71c-.3,0-.62.01-.93.02h-.33s-.1.02-.1.02h-.1c-3.19.23-6.39,1.02-9.21,1.71l-.28.07-.1.02-.1.03c-11.76,3.41-20.21,11.44-28.4,19.21-2.89,2.74-5.61,5.33-8.48,7.74l-.08.07-.08.07c-.95.87-1.92,1.69-2.94,2.56-1.71,1.45-3.47,2.96-5.17,4.69l-.08.09-.08.09c-2.07,2.33-2.02,4.5-1.61,5.92.59,2.04,2.05,3.12,3.35,3.73-2.35,2.26-4.64,4.58-6.88,6.84-1.86,1.88-3.76,3.8-5.66,5.66l.27-1.23c.49-2.29-.61-4.61-2.76-5.78l-.04-.02-.04-.02c-.77-.4-1.51-.7-2.16-.96-.2-.08-.4-.16-.61-.25l-.09-.04-.09-.03c-10.26-3.78-20.43-8.35-29.41-13.21l-.28-.15-.3-.12c-.13-.06-.55-.32-.82-.49-1.25-.79-3.15-1.98-5.59-1.98-1.14,0-2.25.26-3.28.77l-.1.05-.1.06c-15.6,8.7-33.04,16.01-53.33,22.35-12.69,4.02-23.04,6.85-32.57,8.93l-.46.1-.44.19c-.09.03-.47.11-.73.16-1.55.32-4.15.86-5.87,3.33l-.76,1.09-.11,1.33c-3.29,38.05,1.66,72.25,14.71,101.67,14.75,33.8,39.36,59.44,77.44,80.66l.13.07.13.06c.14.07.38.21.6.34,1.07.63,2.69,1.59,4.87,1.59,1.15,0,2.26-.27,3.32-.79,50.81-24.09,86.7-73.06,91.48-124.81.36-2.5-.64-4.15-1.29-4.93-1.14-1.36-2.81-2.11-4.72-2.11-2.86,0-6.24,1.75-10.35,4.04-.61.34-1.44.8-1.74.94l-.22.08-.29.15c-5.09,2.62-6.39,6.13-6.57,8.65-.19,2.03-.83,4.34-1.44,6.57l-.28,1.02c-6.19,22.77-17.42,42.78-31.62,56.35l-.18.17-.16.19c-1.74,2.02-3.53,4.11-5.48,5.4l-.23.15-.21.17c-1.27,1.05-2.4,2.17-3.49,3.24-1.04,1.02-2.02,1.99-3,2.78-.45.35-1.07.85-1.83,1.45-14.25,11.34-19.58,14.15-21.57,14.69-18.72-9.89-37.25-26.75-49.83-45.37.13-.16.25-.33.38-.49,22.73-29.65,50.33-56.5,77.03-82.47,13.26-12.9,26.98-26.24,39.96-39.79,1.15-1.12,2.37-2.18,3.52-3.14.82,1.71,2.45,4.31,5.83,4.31,1.24,0,3.06-.4,4.72-2.3l.12-.14.11-.15c3.26-4.35,6.94-8.6,10.51-12.72,9.71-11.21,19.75-22.8,23.5-38.55l.07-.28.03-.29.02-.19c.19-1.51.62-5.03-2.31-7.33h-.01c-1.82-1.53-4.01-1.53-4.73-1.53h0ZM152.53,74.05l.2-.11c.06-.03.13-.07.19-.11,1.86.84,4.24,1.94,6.3,3l.1.05.11.05c4.29,1.97,8.66,3.45,12.9,4.88,1.87.63,3.63,1.23,5.37,1.85l2.53.92,2.16-1.6c1.69-1.25,4.62-3.78,7.23-6.14-6.21,6.13-12.52,12.29-18.66,18.27-26.66,25.98-54.19,52.81-77.61,82.39-.68-1.3-1.3-2.56-1.7-3.61-9.72-24.47-14-48.13-12.75-70.34v-.06s0-.06,0-.06c.03-.99-.02-1.87-.07-2.65,0-.02,0-.05,0-.07,14.88-3.61,28.78-8.56,42.9-13.74h.03s.03-.02.03-.02c1.97-.75,3.94-1.48,5.93-2.21,8.29-3.07,16.87-6.24,24.85-10.7h0Z" style="fill:url(#d);"/><path d="M237.99,126.95c.55.56-1.45.78-1.96.75-1.51.04-2.84.68-4.46.95-1.64.29-3.12.57-4.69.98-2.28.72-4.87,1.04-6.68,2.6-2.57,2.42-5.53,5.94-5.64,9.77-.49,3.46-1.86,7.03-2.17,10.54-.06.67-.03,4.18-.6,2.1-2.59-9.6-2.31-19.59-12.51-24.45-1.2-.56-2.62-.62-3.96-.98-1.96-.51-3.9-1.13-5.91-1.56-.52-.11-1.03-.22-1.56-.3-.95-.18-1.92-.03-2.58-.54-.35-.5.74-.65,1.09-.69,2.82-.11,5.52-1.17,8.31-1.62,2.08-.45,4.31-1.02,6.19-2.04,2.27-1.39,4.12-3.18,5.46-5.41,1.03-2,1.48-4.5,2.02-6.69.83-3.46,2.07-6.97,1.88-10.54.26-2.06,1.29,1.14,1.26,1.82.46,3.47,1.34,6.8,2.29,10.03.64,2.13,1.37,4.27,2.54,6.17,1.62,2.91,4.57,4.52,7.47,5.88,3.17.97,6.4,1.52,9.66,2.48,1.45.52,3.19.23,4.48.73l.04.03Z" style="fill:#fff;"/></g></svg>