<?xml version="1.0" encoding="UTF-8"?><svg id="a" xmlns="http://www.w3.org/2000/svg" viewBox="0 0 394.47 475.07"><g id="b"><path d="M393.37.85c1.52,1.16,1.08,3.82.85,5.81-9.25,38.84-40.55,64.08-63.75,95.06-2.52,2.89-3.8-.34-5.05-3.19-3-6.21-6.42-11.06-11.89-3.6-3.3,2.7-6.59,5.45-9.72,8.53-75.19,78.5-159.8,149.96-225.83,236.1-2.38,3.17-5.91,6.71-1.98,10.64,24.67,37.04,62.64,72.37,101.9,92.68,8.29,4.61,45.92-26.69,53.85-32.84,4.44-3.57,8.24-8.07,12.66-11.72,4.77-3.15,8.69-7.67,12.53-12.14,31.44-30.04,52.23-71.57,63.44-112.79,1.44-5.3,3.13-10.91,3.62-16.36.27-4.31,3.87-7.01,7.45-8.86,3.48-1.25,23.34-14.55,21.85-6.22-9.16,100.33-79.71,189.52-170.62,232.58-3.2,1.65-5.68-.84-8.48-2.2-63.45-35.36-114.4-80.9-144.82-150.62C2.79,261.8-3.77,196.14,1.87,130.91c1.72-2.48,5.79-2.17,8.57-3.36,21.2-4.62,42.5-10.75,63.46-17.38,36.02-11.25,71.41-25.37,104.38-43.76,3.79-1.89,7.44,2.31,10.9,3.64,18.44,9.99,38.33,18.8,57.81,25.97,1.59.66,3.13,1.2,4.55,1.95.16.09.56.39.5.64-3.96,4.04-16.49,15.35-21.68,19.2-11.09-4.02-23.1-7.46-34.38-12.64-4.44-2.3-9.66-4.7-14.29-6.77-2.64-1.36-5.17.19-7.64,1.52-18.26,10.23-38.44,16.85-57.95,24.27-27.75,10.19-54.25,19.56-82.26,26.3-8.98,1.14-6.16,7.27-6.38,14.08-2.73,48.51,7.85,95.71,25.15,139.28,2.17,5.61,6.51,12.8,9.05,18.19,1.76,4.4,4.18-.76,5.83-2.5,57.87-74.61,128.97-139.04,196.17-205.82,11.99-11.35,23.4-23.97,35.66-34.91,5.09-4.87-5.12-5.91-8.08-7.82-3.25-.93-4.58-1.71-2.37-4.2,4.8-4.91,10.15-8.95,15.21-13.58,21.55-18.04,39.65-41.92,67.42-49.96,5.36-1.32,11.12-2.78,16.61-3.16,1.96-.06,3.98-.29,5.14.68l.12.1Z" style="fill:#231f20;"/><path d="M343.05,210.08c1.05,1.08-2.78,1.5-3.76,1.44-2.91.07-5.47,1.31-8.57,1.82-3.16.56-6,1.1-9.01,1.88-4.38,1.39-9.37,2-12.85,4.99-4.94,4.65-10.63,11.42-10.84,18.78-.94,6.66-3.57,13.51-4.18,20.27-.12,1.29-.05,8.04-1.15,4.03-4.98-18.45-4.43-37.67-24.06-47.02-2.3-1.08-5.03-1.19-7.61-1.88-3.77-.98-7.5-2.17-11.37-3.01-.99-.22-1.99-.43-2.99-.57-1.83-.34-3.69-.06-4.95-1.03-.68-.96,1.41-1.25,2.09-1.34,5.43-.22,10.61-2.26,15.98-3.12,4.01-.86,8.29-1.96,11.91-3.92,4.37-2.68,7.92-6.12,10.51-10.4,1.97-3.85,2.84-8.66,3.89-12.87,1.6-6.66,3.97-13.41,3.62-20.28.51-3.95,2.47,2.2,2.41,3.51.88,6.68,2.57,13.08,4.4,19.3,1.23,4.1,2.64,8.2,4.89,11.87,3.12,5.6,8.78,8.7,14.37,11.31,6.09,1.86,12.31,2.92,18.59,4.76,2.79,1.01,6.13.45,8.62,1.4l.07.06Z" style="fill:#231f20;"/></g></svg>